<?xml version="1.0" standalone="no"?>
<!DOCTYPE svg PUBLIC "-//W3C//DTD SVG 20010904//EN"
 "http://www.w3.org/TR/2001/REC-SVG-20010904/DTD/svg10.dtd">
<svg version="1.0" xmlns="http://www.w3.org/2000/svg"
 width="500.000000pt" height="500.000000pt" viewBox="0 0 500.000000 500.000000"
 preserveAspectRatio="xMidYMid meet">

<g transform="translate(0.000000,500.000000) scale(0.100000,-0.100000)"
fill="#000000" stroke="none">
<path d="M2660 3020 c-19 -5 -48 -23 -63 -41 -26 -28 -29 -38 -24 -77 6 -58
34 -85 117 -114 51 -18 66 -28 68 -45 2 -16 -4 -26 -22 -35 -34 -15 -73 2 -82
37 -5 22 -11 25 -50 25 l-44 0 0 -40 c0 -23 5 -40 11 -40 6 0 26 -13 45 -30
18 -16 49 -32 67 -35 49 -9 112 11 140 44 l24 30 12 -25 c14 -31 75 -58 110
-49 14 4 54 7 89 6 l62 -2 0 35 c0 24 -5 36 -14 36 -9 0 -15 20 -18 71 -5 58
-10 76 -30 95 -30 30 -81 40 -133 25 -60 -17 -69 -25 -56 -49 10 -18 17 -20
61 -15 33 4 55 2 65 -7 26 -21 17 -30 -30 -30 -48 0 -99 -20 -108 -42 -3 -7
-6 -1 -6 14 -1 41 -39 77 -111 102 -72 26 -91 45 -71 70 26 31 86 13 93 -29 3
-17 11 -20 48 -20 45 0 45 0 48 38 2 26 -1 37 -11 37 -7 0 -24 11 -37 25 -13
14 -40 29 -59 35 -40 11 -43 11 -91 0z m350 -300 c0 -13 -10 -24 -27 -31 -31
-12 -51 -6 -60 17 -8 21 13 34 55 34 26 0 32 -4 32 -20z"/>
<path d="M3137 3023 c-4 -3 -7 -19 -7 -35 0 -21 5 -28 20 -28 19 0 20 -7 20
-130 0 -123 -1 -130 -20 -130 -16 0 -20 -7 -20 -35 l0 -35 75 0 75 0 0 35 c0
24 -5 35 -15 35 -8 0 -15 9 -15 20 0 14 7 20 23 20 15 0 34 -17 61 -55 36 -50
43 -55 78 -55 39 0 39 0 36 37 -2 29 -8 39 -23 41 -24 5 -65 41 -65 57 0 22
45 53 88 60 l42 7 0 -71 c0 -38 5 -81 11 -95 25 -54 124 -58 124 -5 0 19 -5
24 -25 24 -24 0 -25 3 -28 73 -3 71 -3 72 23 72 21 0 25 5 25 30 0 25 -4 30
-25 30 -23 0 -25 3 -25 50 0 28 -2 50 -5 50 -2 0 -20 -8 -40 -17 -30 -14 -35
-22 -35 -50 l0 -33 -89 0 -90 0 -3 -42 c-3 -39 -6 -43 -30 -46 l-28 -3 0 115
0 116 -53 0 c-30 0 -57 -3 -60 -7z"/>
<path d="M3680 3001 c-20 -39 22 -82 60 -61 22 12 27 49 8 68 -18 18 -56 14
-68 -7z"/>
<path d="M1270 2855 c-34 -103 -56 -155 -66 -155 -9 0 -14 -11 -14 -35 l0 -35
75 0 75 0 0 31 c0 22 -5 32 -20 36 -23 6 -25 16 -10 44 9 15 22 19 64 19 51 0
55 -2 65 -30 9 -27 8 -30 -10 -30 -15 0 -19 -7 -19 -35 l0 -35 150 0 150 0 0
35 c0 29 -4 35 -20 35 -19 0 -21 5 -18 57 3 52 5 58 30 67 47 16 58 -4 58
-105 l0 -89 140 0 140 0 0 35 c0 28 -4 35 -20 35 -17 0 -20 7 -20 51 0 54 16
78 52 79 36 0 48 -28 48 -116 l0 -84 60 0 c45 0 60 4 60 14 0 11 8 10 38 -6
25 -13 47 -17 67 -13 17 4 58 6 93 5 l62 -1 0 35 c0 25 -4 36 -15 36 -12 0
-15 13 -15 60 0 78 -19 115 -66 130 -67 23 -176 -11 -155 -48 8 -13 24 -17 73
-17 52 0 63 -3 66 -17 3 -15 -4 -18 -42 -18 -62 0 -94 -17 -108 -57 -20 -54
-38 -42 -38 26 0 79 -12 108 -55 128 -34 16 -40 16 -81 1 -24 -8 -44 -12 -44
-7 0 5 -27 9 -60 9 l-60 0 0 -35 c0 -28 4 -35 20 -35 18 0 20 -7 20 -60 l0
-60 -40 0 -40 0 0 69 c0 59 -4 74 -24 97 -19 22 -31 28 -62 27 -22 -1 -76 -2
-121 -2 l-83 0 0 -36 c0 -24 4 -35 15 -35 12 0 15 -13 15 -61 0 -60 0 -60 -27
-57 -25 3 -30 12 -77 156 l-51 152 -51 0 -52 0 -52 -155z m119 34 c7 -23 15
-47 18 -55 4 -11 -5 -14 -35 -14 l-39 0 16 55 c9 30 19 55 22 55 3 0 11 -18
18 -41z m981 -169 c0 -26 -43 -44 -71 -30 -36 20 -13 50 38 50 26 0 33 -4 33
-20z"/>
<path d="M3640 2855 c0 -28 4 -35 20 -35 18 0 20 -7 20 -60 0 -53 -2 -60 -20
-60 -16 0 -20 -7 -20 -35 l0 -35 75 0 75 0 0 35 c0 24 -5 35 -15 35 -12 0 -15
17 -15 95 l0 95 -60 0 -60 0 0 -35z"/>
</g>
</svg>
